{
  "accessors": [
    {
      "bufferView": 2,
      "componentType": 5126,
      "count": 6690,
      "max": [
        0.7840307950973511,
        0.7118587493896484,
        0.32282423973083496
      ],
      "min": [
        -0.7949889302253723,
        -1.8990697860717773,
        -0.18126916885375977
      ],
      "type": "VEC3"
    },
    {
      "bufferView": 2,
      "byteOffset": 80280,
      "componentType": 5126,
      "count": 6690,
      "max": [
        1.0,
        1.0,
        1.0
      ],
      "min": [
        -1.0,
        -1.0,
        -1.0
      ],
      "type": "VEC3"
    },
    {
      "bufferView": 3,
      "componentType": 5126,
      "count": 6690,
      "max": [
        1.0,
        1.0,
        1.0,
        1.0
      ],
      "min": [
        -1.0,
        -1.0,
        -1.0,
        -1.0
      ],
      "type": "VEC4"
    },
    {
      "bufferView": 1,
      "componentType": 5126,
      "count": 6690,
      "max": [
        0.9981796145439148,
        0.9998779296875
      ],
      "min": [
        0.0001220703125,
        0.0001220703125
      ],
      "type": "VEC2"
    },
    {
      "bufferView": 1,
      "byteOffset": 53520,
      "componentType": 5126,
      "count": 6690,
      "max": [
        0.9981796145439148,
        0.9998779296875
      ],
      "min": [
        0.0001220703125,
        0.0001220703125
      ],
      "type": "VEC2"
    },
    {
      "bufferView": 1,
      "byteOffset": 107040,
      "componentType": 5126,
      "count": 6690,
      "max": [
        0.9981796145439148,
        0.9998779296875
      ],
      "min": [
        0.0001220703125,
        0.0001220703125
      ],
      "type": "VEC2"
    },
    {
      "bufferView": 1,
      "byteOffset": 160560,
      "componentType": 5126,
      "count": 6690,
      "max": [
        0.9981796145439148,
        0.9998779296875
      ],
      "min": [
        0.0001220703125,
        0.0001220703125
      ],
      "type": "VEC2"
    },
    {
      "bufferView": 0,
      "componentType": 5125,
      "count": 24738,
      "type": "SCALAR"
    }
  ],
  "asset": {
    "extras": {
      "author": "JLRIN (https://sketchfab.com/JLRIN)",
      "license": "CC-BY-4.0 (http://creativecommons.org/licenses/by/4.0/)",
      "source": "https://sketchfab.com/3d-models/braun-tp1-radio-a04fcf2582484f29b88a0ea9da768f7f",
      "title": "Braun TP1 - Radio"
    },
    "generator": "Sketchfab-13.57.0",
    "version": "2.0"
  },
  "bufferViews": [
    {
      "buffer": 0,
      "byteLength": 98952,
      "name": "floatBufferViews",
      "target": 34963
    },
    {
      "buffer": 0,
      "byteLength": 214080,
      "byteOffset": 98952,
      "byteStride": 8,
      "name": "floatBufferViews",
      "target": 34962
    },
    {
      "buffer": 0,
      "byteLength": 160560,
      "byteOffset": 313032,
      "byteStride": 12,
      "name": "floatBufferViews",
      "target": 34962
    },
    {
      "buffer": 0,
      "byteLength": 107040,
      "byteOffset": 473592,
      "byteStride": 16,
      "name": "floatBufferViews",
      "target": 34962
    }
  ],
  "buffers": [
    {
      "byteLength": 580632,
      "uri": "scene.bin"
    }
  ],
  "images": [
    {
      "uri": "textures/Braun_TP1_-_Radio_baseColor.jpeg"
    },
    {
      "uri": "textures/Braun_TP1_-_Radio_metallicRoughness.png"
    },
    {
      "uri": "textures/Braun_TP1_-_Radio_normal.jpeg"
    }
  ],
  "materials": [
    {
      "doubleSided": true,
      "name": "Braun_TP1_-_Radio",
      "normalTexture": {
        "index": 2
      },
      "pbrMetallicRoughness": {
        "baseColorTexture": {
          "index": 0
        },
        "metallicRoughnessTexture": {
          "index": 1
        }
      }
    }
  ],
  "meshes": [
    {
      "name": "Object_0",
      "primitives": [
        {
          "attributes": {
            "NORMAL": 1,
            "POSITION": 0,
            "TANGENT": 2,
            "TEXCOORD_0": 3,
            "TEXCOORD_1": 4,
            "TEXCOORD_2": 5,
            "TEXCOORD_3": 6
          },
          "indices": 7,
          "material": 0,
          "mode": 4
        }
      ]
    }
  ],
  "nodes": [
    {
      "children": [
        1
      ],
      "matrix": [
        1.0,
        0.0,
        0.0,
        0.0,
        0.0,
        2.220446049250313e-16,
        -1.0,
        0.0,
        0.0,
        1.0,
        2.220446049250313e-16,
        0.0,
        0.0,
        0.0,
        0.0,
        1.0
      ],
      "name": "Sketchfab_model"
    },
    {
      "children": [
        2
      ],
      "name": "root"
    },
    {
      "children": [
        3
      ],
      "matrix": [
        1.0,
        0.0,
        0.0,
        0.0,
        0.0,
        2.220446049250313e-16,
        1.0,
        0.0,
        0.0,
        -1.0,
        2.220446049250313e-16,
        0.0,
        0.0,
        0.0,
        0.0,
        1.0
      ],
      "name": "GLTF_SceneRootNode"
    },
    {
      "children": [
        4
      ],
      "matrix": [
        1.0,
        0.0,
        0.0,
        0.0,
        0.0,
        1.0,
        0.0,
        0.0,
        0.0,
        0.0,
        1.0,
        0.0,
        0.0,
        0.7376241683959961,
        0.0,
        1.0
      ],
      "name": "Braun TP1 - Radio_0"
    },
    {
      "mesh": 0,
      "name": "Object_4"
    }
  ],
  "samplers": [
    {
      "magFilter": 9729,
      "minFilter": 9987,
      "wrapS": 10497,
      "wrapT": 10497
    }
  ],
  "scene": 0,
  "scenes": [
    {
      "name": "Sketchfab_Scene",
      "nodes": [
        0
      ]
    }
  ],
  "textures": [
    {
      "sampler": 0,
      "source": 0
    },
    {
      "sampler": 0,
      "source": 1
    },
    {
      "sampler": 0,
      "source": 2
    }
  ]
}
